<svg width="76" height="51" viewBox="0 0 76 51" fill="none" xmlns="http://www.w3.org/2000/svg">
<path d="M13.3976 39.0302C13.4716 39.2379 13.6081 39.4334 13.7987 39.605C13.9893 39.7767 14.2302 39.9209 14.5068 40.029C14.7834 40.1371 15.09 40.2069 15.4083 40.2342C15.7265 40.2614 16.0497 40.2456 16.3585 40.1876C30.5162 37.588 45.4684 37.587 59.6268 40.1849C59.9355 40.2428 60.2586 40.2586 60.5767 40.2314C60.8948 40.2041 61.2014 40.1344 61.4779 40.0263C61.7544 39.9182 61.9952 39.7741 62.1858 39.6025C62.3765 39.431 62.5129 39.2356 62.5871 39.0281L70.154 17.6428C70.2553 17.3565 70.2344 17.0571 70.0937 16.7782C69.9529 16.4994 69.6979 16.2523 69.3573 16.0647C69.0168 15.877 68.6042 15.7564 68.1661 15.7163C67.728 15.6761 67.2817 15.7182 66.8776 15.8376L51.8606 20.2763C51.3183 20.4365 50.7055 20.456 50.1427 20.3308C49.5799 20.2057 49.108 19.9449 48.8199 19.6L40.0762 9.13321C39.8705 8.88698 39.5695 8.68182 39.2045 8.53897C38.8394 8.39613 38.4236 8.3208 38 8.3208C37.5765 8.3208 37.1607 8.39613 36.7956 8.53897C36.4306 8.68182 36.1296 8.88698 35.9239 9.13321L27.1803 19.6C26.8921 19.9449 26.4202 20.2057 25.8574 20.3308C25.2946 20.456 24.6818 20.4365 24.1396 20.2763L9.12022 15.837C8.71617 15.7175 8.27001 15.6755 7.83198 15.7156C7.39394 15.7556 6.98143 15.8762 6.64087 16.0638C6.30032 16.2513 6.04525 16.4984 5.90439 16.7771C5.76352 17.0558 5.74246 17.3552 5.84356 17.6414L13.3976 39.0302Z" stroke="black" stroke-width="2" stroke-linecap="round" stroke-linejoin="round"/>
<path d="M28.5 32.2507C34.8159 31.8088 41.1841 31.8088 47.5 32.2507" stroke="black" stroke-width="2" stroke-linecap="round" stroke-linejoin="round"/>
</svg>
